<?xml version="1.0" ?><svg height="32" id="svg4152" version="1.1" viewBox="0 0 32 32" width="32" xmlns="http://www.w3.org/2000/svg" xmlns:cc="http://creativecommons.org/ns#" xmlns:dc="http://purl.org/dc/elements/1.1/" xmlns:inkscape="http://www.inkscape.org/namespaces/inkscape" xmlns:rdf="http://www.w3.org/1999/02/22-rdf-syntax-ns#" xmlns:sodipodi="http://sodipodi.sourceforge.net/DTD/sodipodi-0.dtd" xmlns:svg="http://www.w3.org/2000/svg"><defs id="defs4154"/><g id="layer1"><g id="g5350" transform="matrix(1.0770554,0,0,1.0770554,-1.5970052,-1.5351653)"><g id="g5339" transform="matrix(0.71934699,0,0,0.71934699,-328.84535,4.7711011)"><path d="m 475,15.56254 a 2.5,2.5 0 0 1 -2.5,2.5 2.5,2.5 0 0 1 -2.5,-2.5 2.5,2.5 0 0 1 2.5,-2.5 2.5,2.5 0 0 1 2.5,2.5 z" id="path5327" style="opacity:1;fill:none;fill-opacity:1;stroke:#565656;stroke-width:1;stroke-linecap:round;stroke-linejoin:round;stroke-miterlimit:4;stroke-dasharray:none;stroke-opacity:1"/><path d="m 482.38818,15.56254 a 2.5,2.5 0 0 1 -2.5,2.5 2.5,2.5 0 0 1 -2.5,-2.5 2.5,2.5 0 0 1 2.5,-2.5 2.5,2.5 0 0 1 2.5,2.5 z" id="circle5329" style="opacity:1;fill:none;fill-opacity:1;stroke:#565656;stroke-width:1;stroke-linecap:round;stroke-linejoin:round;stroke-miterlimit:4;stroke-dasharray:none;stroke-opacity:1"/><path d="m 489.71323,15.56254 a 2.5,2.5 0 0 1 -2.5,2.5 2.5,2.5 0 0 1 -2.5,-2.5 2.5,2.5 0 0 1 2.5,-2.5 2.5,2.5 0 0 1 2.5,2.5 z" id="circle5331" style="opacity:1;fill:none;fill-opacity:1;stroke:#565656;stroke-width:1;stroke-linecap:round;stroke-linejoin:round;stroke-miterlimit:4;stroke-dasharray:none;stroke-opacity:1"/></g><path d="m 5.9075375,6.2097951 20.8610625,0 c 1.195555,0 2.158041,0.9624863 2.158041,2.1580413 l 0,15.8256336 c 0,1.195554 -0.962486,2.158041 -2.158041,2.158041 l -20.8610625,0 c -1.1955547,0 -2.158041,-0.962487 -2.158041,-2.158041 l 0,-15.8256336 c 0,-1.195555 0.9624863,-2.1580413 2.158041,-2.1580413 z" id="rect5333" style="opacity:1;fill:none;fill-opacity:1;stroke:#565656;stroke-width:0.719347;stroke-linecap:round;stroke-linejoin:round;stroke-miterlimit:4;stroke-dasharray:none;stroke-opacity:1"/><path d="m 26.7686,15.965967 c 0,3.57556 -4.669907,6.474123 -10.430531,6.474123 -1.440154,0 -2.812143,-0.18116 -4.06003,-0.508769 -1.247895,-0.327608 -6.0863667,1.701412 -6.0863667,1.701412 0,0 1.0633604,-4.372192 0.5355467,-5.146745 -0.5278137,-0.774554 -0.8196815,-1.626131 -0.8196815,-2.520021 0,-3.575559 4.6699075,-6.4741226 10.4305315,-6.4741226 5.760624,0 10.430531,2.8985636 10.430531,6.4741226 z" id="path5344" style="opacity:1;fill:none;fill-opacity:1;stroke:#565656;stroke-width:0.719347;stroke-linecap:round;stroke-linejoin:round;stroke-miterlimit:4;stroke-dasharray:none;stroke-opacity:1"/></g></g></svg>